HIERARCHY
ROOT Hips
{
    OFFSET 0.000000 0.000000 0.000000
    CHANNELS 6 Xposition Yposition Zposition Zrotation Xrotation Yrotation
    JOINT Spine
    {
        OFFSET -0.000008 7.848626 0.000026
        CHANNELS 3 Zrotation Xrotation Yrotation
        JOINT Spine1
        {
            OFFSET 0.000013 20.903070 -0.000033
            CHANNELS 3 Zrotation Xrotation Yrotation
            JOINT Neck
            {
                OFFSET 0.000003 22.292706 -0.000011
                CHANNELS 3 Zrotation Xrotation Yrotation
                JOINT Head
                {
                    OFFSET 0.000001 14.279130 1.902220
                    CHANNELS 3 Zrotation Xrotation Yrotation
                    End Site
                    {
                        OFFSET 0.000000 19.022141 0.000000
                    }
                }
            }
            JOINT LeftShoulder
            {
                OFFSET 3.797834 16.121201 -0.677306
                CHANNELS 3 Zrotation Xrotation Yrotation
                JOINT LeftArm
                {
                    OFFSET 11.576589 -0.000004 -0.000014
                    CHANNELS 3 Zrotation Xrotation Yrotation
                    JOINT LeftForeArm
                    {
                        OFFSET 29.906410 0.000012 0.000004
                        CHANNELS 3 Zrotation Xrotation Yrotation
                        JOINT LeftHand
                        {
                            OFFSET 24.318316 0.000004 0.000004
                            CHANNELS 3 Zrotation Xrotation Yrotation
                            JOINT LeftHandThumb1
                            {
                                OFFSET 1.987815 -2.258876 3.162452
                                CHANNELS 3 Zrotation Xrotation Yrotation
                                JOINT LeftHandThumb2
                                {
                                    OFFSET 3.002299 0.000005 0.000005
                                    CHANNELS 3 Zrotation Xrotation Yrotation
                                    JOINT LeftHandThumb3
                                    {
                                        OFFSET 2.566085 0.000018 0.000012
                                        CHANNELS 3 Zrotation Xrotation Yrotation
                                        End Site
                                        {
                                            OFFSET 2.440626 0.000000 0.000000
                                        }
                                    }
                                }
                            }
                            JOINT LeftHandIndex1
                            {
                                OFFSET 8.131962 0.000001 3.162428
                                CHANNELS 3 Zrotation Xrotation Yrotation
                                JOINT LeftHandIndex2
                                {
                                    OFFSET 4.517756 -0.000002 -0.000008
                                    CHANNELS 3 Zrotation Xrotation Yrotation
                                    JOINT LeftHandIndex3
                                    {
                                        OFFSET 2.258878 0.000006 0.000019
                                        CHANNELS 3 Zrotation Xrotation Yrotation
                                        End Site
                                        {
                                            OFFSET 2.148437 0.000000 0.000000
                                        }
                                    }
                                }
                            }
                            JOINT LeftHandMiddle1
                            {
                                OFFSET 8.131961 0.000003 1.048141
                                CHANNELS 3 Zrotation Xrotation Yrotation
                                JOINT LeftHandMiddle2
                                {
                                    OFFSET 4.969536 -0.000001 -0.000014
                                    CHANNELS 3 Zrotation Xrotation Yrotation
                                    JOINT LeftHandMiddle3
                                    {
                                        OFFSET 2.710657 0.000001 0.000014
                                        CHANNELS 3 Zrotation Xrotation Yrotation
                                        End Site
                                        {
                                            OFFSET 2.578118 0.000000 0.000000
                                        }
                                    }
                                }
                            }
                            JOINT LeftHandRing1
                            {
                                OFFSET 7.680184 0.000003 -1.048099
                                CHANNELS 3 Zrotation Xrotation Yrotation
                                JOINT LeftHandRing2
                                {
                                    OFFSET 4.517756 -0.000001 -0.000008
                                    CHANNELS 3 Zrotation Xrotation Yrotation
                                    JOINT LeftHandRing3
                                    {
                                        OFFSET 2.258878 0.000002 0.000020
                                        CHANNELS 3 Zrotation Xrotation Yrotation
                                        End Site
                                        {
                                            OFFSET 2.148437 0.000000 0.000000
                                        }
                                    }
                                }
                            }
                            JOINT LeftHandPinky1
                            {
                                OFFSET 7.228410 0.000000 -3.162428
                                CHANNELS 3 Zrotation Xrotation Yrotation
                                JOINT LeftHandPinky2
                                {
                                    OFFSET 3.614204 0.000001 0.000003
                                    CHANNELS 3 Zrotation Xrotation Yrotation
                                    JOINT LeftHandPinky3
                                    {
                                        OFFSET 1.807105 0.000001 -0.000022
                                        CHANNELS 3 Zrotation Xrotation Yrotation
                                        End Site
                                        {
                                            OFFSET 1.718745 0.000000 0.000000
                                        }
                                    }
                                }
                            }
                        }
                    }
                }
            }
            JOINT RightShoulder
            {
                OFFSET -3.797835 16.121204 -0.677282
                CHANNELS 3 Zrotation Xrotation Yrotation
                JOINT RightArm
                {
                    OFFSET -11.576581 -0.000004 -0.000002
                    CHANNELS 3 Zrotation Xrotation Yrotation
                    JOINT RightForeArm
                    {
                        OFFSET -29.906410 0.000012 0.000015
                        CHANNELS 3 Zrotation Xrotation Yrotation
                        JOINT RightHand
                        {
                            OFFSET -24.318323 0.000011 0.000001
                            CHANNELS 3 Zrotation Xrotation Yrotation
                            JOINT RightHandThumb1
                            {
                                OFFSET -1.987803 -2.258880 3.162433
                                CHANNELS 3 Zrotation Xrotation Yrotation
                                JOINT RightHandThumb2
                                {
                                    OFFSET -3.002280 0.000010 0.000002
                                    CHANNELS 3 Zrotation Xrotation Yrotation
                                    JOINT RightHandThumb3
                                    {
                                        OFFSET -2.566098 -0.000006 0.000001
                                        CHANNELS 3 Zrotation Xrotation Yrotation
                                        End Site
                                        {
                                            OFFSET -2.440626 0.000000 0.000000
                                        }
                                    }
                                }
                            }
                            JOINT RightHandIndex1
                            {
                                OFFSET -8.131983 -0.000002 3.162433
                                CHANNELS 3 Zrotation Xrotation Yrotation
                                JOINT RightHandIndex2
                                {
                                    OFFSET -4.517781 -0.000002 -0.000004
                                    CHANNELS 3 Zrotation Xrotation Yrotation
                                    JOINT RightHandIndex3
                                    {
                                        OFFSET -2.258867 -0.000001 0.000000
                                        CHANNELS 3 Zrotation Xrotation Yrotation
                                        End Site
                                        {
                                            OFFSET -2.148437 0.000000 0.000000
                                        }
                                    }
                                }
                            }
                            JOINT RightHandMiddle1
                            {
                                OFFSET -8.131975 -0.000004 1.048119
                                CHANNELS 3 Zrotation Xrotation Yrotation
                                JOINT RightHandMiddle2
                                {
                                    OFFSET -4.969537 0.000003 0.000004
                                    CHANNELS 3 Zrotation Xrotation Yrotation
                                    JOINT RightHandMiddle3
                                    {
                                        OFFSET -2.710670 0.000003 0.000004
                                        CHANNELS 3 Zrotation Xrotation Yrotation
                                        End Site
                                        {
                                            OFFSET -2.578118 0.000000 0.000000
                                        }
                                    }
                                }
                            }
                            JOINT RightHandRing1
                            {
                                OFFSET -7.680190 -0.000004 -1.048120
                                CHANNELS 3 Zrotation Xrotation Yrotation
                                JOINT RightHandRing2
                                {
                                    OFFSET -4.517781 -0.000002 -0.000003
                                    CHANNELS 3 Zrotation Xrotation Yrotation
                                    JOINT RightHandRing3
                                    {
                                        OFFSET -2.258867 -0.000000 0.000000
                                        CHANNELS 3 Zrotation Xrotation Yrotation
                                        End Site
                                        {
                                            OFFSET -2.148437 0.000000 0.000000
                                        }
                                    }
                                }
                            }
                            JOINT RightHandPinky1
                            {
                                OFFSET -7.228427 -0.000003 -3.162433
                                CHANNELS 3 Zrotation Xrotation Yrotation
                                JOINT RightHandPinky2
                                {
                                    OFFSET -3.614225 -0.000003 -0.000004
                                    CHANNELS 3 Zrotation Xrotation Yrotation
                                    JOINT RightHandPinky3
                                    {
                                        OFFSET -1.807113 0.000001 0.000003
                                        CHANNELS 3 Zrotation Xrotation Yrotation
                                        End Site
                                        {
                                            OFFSET -1.718745 0.000000 0.000000
                                        }
                                    }
                                }
                            }
                        }
                    }
                }
            }
        }
    }
    JOINT LeftUpLeg
    {
        OFFSET 9.511071 0.000001 -0.000012
        CHANNELS 3 Zrotation Xrotation Yrotation
        JOINT LeftLeg
        {
            OFFSET 0.000005 -43.875633 -0.000009
            CHANNELS 3 Zrotation Xrotation Yrotation
            JOINT LeftFoot
            {
                OFFSET 0.000003 -35.354156 -0.000004
                CHANNELS 3 Zrotation Xrotation Yrotation
                JOINT LeftToeBase
                {
                    OFFSET -0.000001 -6.182192 14.266607
                    CHANNELS 3 Zrotation Xrotation Yrotation
                    End Site
                    {
                        OFFSET 0.000000 0.000000 3.804428
                    }
                }
            }
        }
    }
    JOINT RightUpLeg
    {
        OFFSET -9.511071 -0.000001 0.000012
        CHANNELS 3 Zrotation Xrotation Yrotation
        JOINT RightLeg
        {
            OFFSET 0.000000 -43.875633 -0.000009
            CHANNELS 3 Zrotation Xrotation Yrotation
            JOINT RightFoot
            {
                OFFSET 0.000001 -35.354160 -0.000016
                CHANNELS 3 Zrotation Xrotation Yrotation
                JOINT RightToeBase
                {
                    OFFSET -0.000000 -6.182191 14.266625
                    CHANNELS 3 Zrotation Xrotation Yrotation
                    End Site
                    {
                        OFFSET 0.000000 0.000000 3.804428
                    }
                }
            }
        }
    }
}
MOTION
Frames:    5
Frame Time:    0.002778
35.208614    91.219681    586.462708    1.492224    0.235063    -154.238174    -0.270842    3.884995    1.803291    -1.354207    3.883956    1.876683    3.200707    2.430078    -19.203859    3.200709    2.430080    -19.203863    3.831156    -2.619701    0.885272    -64.601120    2.240590    -8.125158    -48.705532    5.772064    -65.641052    -15.233924    -2.119759    6.036633    47.448204    38.866428    -34.355030    -34.999989    0.000003    0.000001    -0.000000    0.000000    -0.000000    -0.000003    10.000005    -0.000003    -0.000000    0.000000    -0.000000    -0.000000    0.000000    -0.000000    -0.000000    0.000000    -0.000000    -0.000000    0.000000    -0.000000    -0.000000    0.000000    -0.000000    -0.000000    0.000000    -0.000000    -0.000000    0.000000    -0.000000    -0.000000    0.000000    -0.000000    0.000003    -9.999995    -0.000003    -0.000000    0.000000    -0.000000    -0.000000    0.000000    -0.000000    -5.885879    0.898517    1.227882    58.645145    -13.516667    8.254961    10.157500    24.124233    80.834038    -69.192215    13.836487    -5.267309    -47.448204    38.866417    34.355038    35.000004    -0.000003    -0.000011    -0.000000    0.000000    -0.000000    -0.000003    9.999998    0.000000    -0.000000    0.000000    -0.000000    -0.000000    0.000000    -0.000000    -0.000000    0.000000    -0.000000    -0.000000    0.000000    -0.000000    -0.000000    0.000000    -0.000000    -0.000000    0.000000    -0.000000    -0.000000    0.000000    -0.000000    -0.000000    0.000000    -0.000000    -0.000007    -10.000001    -0.000007    -0.000000    0.000000    -0.000000    -0.000000    0.000000    -0.000000    16.947294    -14.003577    -3.028961    -0.000001    26.549940    0.000002    -10.371919    -12.325147    -1.626358    0.000000    -0.253511    0.000002    -12.079838    -12.530673    -1.155624    -0.000002    38.422531    0.000000    15.243627    -17.948118    -18.300224    -0.000000    -3.282712    -0.000000    
35.202930    91.217262    586.466980    1.491894    0.240438    -154.264130    -0.271243    3.886028    1.787932    -1.356214    3.884985    1.861452    3.212945    2.426155    -19.178633    3.212944    2.426156    -19.178631    3.824407    -2.634725    0.874722    -64.598755    2.232299    -8.144995    -48.676208    5.823846    -65.676949    -15.223711    -2.119650    6.041599    47.448193    38.866428    -34.355030    -34.999985    -0.000002    0.000019    -0.000000    0.000000    -0.000000    -0.000000    10.000001    -0.000000    -0.000000    0.000000    -0.000000    -0.000000    0.000000    -0.000000    -0.000000    0.000000    -0.000000    -0.000000    0.000000    -0.000000    -0.000000    0.000000    -0.000000    -0.000000    0.000000    -0.000000    -0.000000    0.000000    -0.000000    -0.000000    0.000000    -0.000000    -0.000004    -10.000007    -0.000004    -0.000000    0.000000    -0.000000    -0.000000    0.000000    -0.000000    -5.904594    0.933028    1.224144    58.708508    -13.316331    8.176087    10.082845    24.163733    80.842186    -69.155144    13.885621    -5.294522    -47.448212    38.866421    34.355042    35.000004    0.000003    -0.000006    -0.000000    0.000000    -0.000000    0.000003    9.999999    0.000002    -0.000000    0.000000    -0.000000    -0.000000    0.000000    -0.000000    -0.000000    0.000000    -0.000000    -0.000000    0.000000    -0.000000    -0.000000    0.000000    -0.000000    -0.000000    0.000000    -0.000000    -0.000000    0.000000    -0.000000    -0.000000    0.000000    -0.000000    -0.000002    -10.000005    -0.000003    -0.000000    0.000000    -0.000000    -0.000000    0.000000    -0.000000    16.951328    -14.001411    -3.016991    0.000002    26.578814    0.000000    -10.391692    -12.347708    -1.627734    0.000000    -0.254009    0.000001    -12.087152    -12.536699    -1.160196    0.000004    38.425709    -0.000003    15.249287    -17.936874    -18.269655    -0.000000    -3.284422    -0.000000    
35.197296    91.215881    586.471924    1.492689    0.245861    -154.292099    -0.271401    3.887133    1.773252    -1.357006    3.886090    1.846842    3.225780    2.424541    -19.155279    3.225781    2.424541    -19.155273    3.816531    -2.647881    0.865644    -64.596039    2.223386    -8.164865    -48.637375    5.879946    -65.710854    -15.210873    -2.122227    6.057870    47.448189    38.866428    -34.355019    -34.999989    -0.000006    0.000009    -0.000000    0.000000    -0.000000    0.000003    10.000000    -0.000000    -0.000000    0.000000    -0.000000    -0.000000    0.000000    -0.000000    -0.000000    0.000000    -0.000000    -0.000000    0.000000    -0.000000    -0.000000    0.000000    -0.000000    -0.000000    0.000000    -0.000000    -0.000000    0.000000    -0.000000    -0.000000    0.000000    -0.000000    0.000000    -10.000004    0.000000    -0.000000    0.000000    -0.000000    -0.000000    0.000000    -0.000000    -5.923513    0.969420    1.223391    58.771435    -13.100118    8.100180    9.995562    24.203402    80.853210    -69.109512    13.931463    -5.322816    -47.448208    38.866432    34.355022    34.999996    -0.000001    -0.000004    -0.000000    0.000000    -0.000000    0.000001    10.000002    0.000002    -0.000000    0.000000    -0.000000    -0.000000    0.000000    -0.000000    -0.000000    0.000000    -0.000000    -0.000000    0.000000    -0.000000    -0.000000    0.000000    -0.000000    -0.000000    0.000000    -0.000000    -0.000000    0.000000    -0.000000    -0.000000    0.000000    -0.000000    -0.000001    -10.000002    -0.000002    -0.000000    0.000000    -0.000000    -0.000000    0.000000    -0.000000    16.949617    -13.997777    -3.021575    -0.000000    26.603893    0.000002    -10.394428    -12.368336    -1.602853    -0.000000    -0.253502    -0.000003    -12.092565    -12.542266    -1.161343    0.000000    38.426014    -0.000003    15.256100    -17.927946    -18.239876    -0.000000    -3.286629    -0.000000    
35.192551    91.213432    586.480042    1.493890    0.250906    -154.323730    -0.271509    3.889202    1.759148    -1.357539    3.888157    1.832798    3.238329    2.424615    -19.130466    3.238329    2.424616    -19.130465    3.804695    -2.663169    0.852267    -64.594231    2.217303    -8.186018    -48.603123    5.930572    -65.740631    -15.208101    -2.125799    6.073306    47.448204    38.866428    -34.355030    -34.999996    -0.000003    0.000008    -0.000000    0.000000    -0.000000    -0.000003    9.999996    0.000000    -0.000000    0.000000    -0.000000    -0.000000    0.000000    -0.000000    -0.000000    0.000000    -0.000000    -0.000000    0.000000    -0.000000    -0.000000    0.000000    -0.000000    -0.000000    0.000000    -0.000000    -0.000000    0.000000    -0.000000    -0.000000    0.000000    -0.000000    -0.000003    -10.000002    0.000003    -0.000000    0.000000    -0.000000    -0.000000    0.000000    -0.000000    -5.944553    0.992648    1.224772    58.828964    -12.886009    8.028603    9.915689    24.239426    80.872421    -69.079651    13.983271    -5.349160    -47.448200    38.866428    34.355030    34.999992    -0.000000    -0.000001    -0.000000    0.000000    -0.000000    -0.000005    10.000001    -0.000004    -0.000000    0.000000    -0.000000    -0.000000    0.000000    -0.000000    -0.000000    0.000000    -0.000000    -0.000000    0.000000    -0.000000    -0.000000    0.000000    -0.000000    -0.000000    0.000000    -0.000000    -0.000000    0.000000    -0.000000    -0.000000    0.000000    -0.000000    0.000002    -10.000001    0.000003    -0.000000    0.000000    -0.000000    -0.000000    0.000000    -0.000000    16.946360    -13.994168    -3.031051    -0.000000    26.627022    0.000000    -10.391160    -12.390336    -1.565412    0.000000    -0.250260    -0.000001    -12.097249    -12.551440    -1.158894    0.000005    38.425201    -0.000003    15.259711    -17.917233    -18.210552    0.000000    -3.287808    0.000000    
35.189583    91.213219    586.489563    1.495322    0.255606    -154.360168    -0.271732    3.893523    1.747601    -1.358657    3.892475    1.821394    3.250569    2.423311    -19.106258    3.250570    2.423313    -19.106264    3.792646    -2.684406    0.835665    -64.590530    2.214230    -8.209955    -48.565987    5.975310    -65.773079    -15.221788    -2.131852    6.090855    47.448215    38.866444    -34.355034    -35.000008    -0.000005    0.000009    -0.000000    0.000000    -0.000000    -0.000000    9.999998    -0.000000    -0.000000    0.000000    -0.000000    -0.000000    0.000000    -0.000000    -0.000000    0.000000    -0.000000    -0.000000    0.000000    -0.000000    -0.000000    0.000000    -0.000000    -0.000000    0.000000    -0.000000    -0.000000    0.000000    -0.000000    -0.000000    0.000000    -0.000000    -0.000000    -10.000008    -0.000003    -0.000000    0.000000    -0.000000    -0.000000    0.000000    -0.000000    -5.959521    1.012551    1.234140    58.885525    -12.675550    7.957761    9.807151    24.271795    80.884819    -69.068565    14.029093    -5.367819    -47.448219    38.866440    34.355038    35.000008    -0.000004    -0.000008    -0.000000    0.000000    -0.000000    0.000001    10.000005    -0.000014    -0.000000    0.000000    -0.000000    -0.000000    0.000000    -0.000000    -0.000000    0.000000    -0.000000    -0.000000    0.000000    -0.000000    -0.000000    0.000000    -0.000000    -0.000000    0.000000    -0.000000    -0.000000    0.000000    -0.000000    -0.000000    0.000000    -0.000000    -0.000005    -9.999996    -0.000004    -0.000000    0.000000    -0.000000    -0.000000    0.000000    -0.000000    16.945126    -13.989676    -3.036433    0.000002    26.649317    -0.000000    -10.390279    -12.410003    -1.531841    0.000000    -0.250473    0.000003    -12.101002    -12.563233    -1.155206    0.000002    38.421844    0.000001    15.267573    -17.901005    -18.179651    0.000000    -3.286882    0.000000    
